<?xml version="1.0" encoding="UTF-8"?> <svg xmlns="http://www.w3.org/2000/svg" width="1190" height="590" viewBox="0 0 1190 590" fill="none"> <path d="M15.0697 0.209473C14.9932 -0.0842969 14.5208 -0.0705269 14.5523 0.259965C14.8987 4.03767 13.792 7.91636 11.1332 10.6567C8.41145 13.4567 4.98336 14.4068 1.24036 14.4987C1.14588 14.2508 0.718478 14.2783 0.722977 14.5951C0.803955 23.7937 0.880455 32.9878 0.961433 42.1865C1.04241 51.3668 0.835466 60.6068 1.24486 69.7779C1.25835 70.0717 1.68574 70.0763 1.69474 69.7779C1.94667 60.6022 1.57775 51.3668 1.50127 42.1865C1.42029 33.0842 1.34382 23.9773 1.26284 14.875C9.3157 15.9446 15.722 8.26981 15.0967 0.420632C19.0196 1.63702 23.5499 1.26522 27.5854 1.19178C32.2731 1.10457 36.9609 0.962251 41.6486 0.861268C51.0196 0.659301 60.3951 0.640952 69.7392 1.44423C70.0496 1.47177 70.0946 0.989812 69.8111 0.907189C69.6267 0.852107 69.4467 0.797034 69.2623 0.741952C69.1363 0.70523 69.0464 0.760296 68.9969 0.842919C60.0442 0.113084 51.0601 0.117682 42.085 0.305878C37.5412 0.402272 33.0019 0.535395 28.4581 0.627198C26.1412 0.6731 23.8153 0.737355 21.4985 0.654732C19.3525 0.5767 17.2066 0.204894 15.0652 0.214074L15.0697 0.209473Z" fill="#364A46" fill-opacity="0.8"></path> <path d="M18.1754 3.91359C18.072 3.95949 17.991 4.03751 17.991 4.16145C17.991 4.18899 17.991 4.21196 17.991 4.2395C17.991 4.24868 17.982 4.25786 17.9775 4.26704C16.4434 11.0513 11.5082 15.5497 5.11989 17.4867C4.92644 17.5464 4.97143 17.7897 5.12889 17.831C5.1064 17.8631 5.0974 17.8998 5.12439 17.9365C9.26779 23.7247 18.5758 24.8218 23.0116 18.7306C24.8966 16.1418 25.4725 12.6762 24.2668 9.66048C23.556 7.88409 22.3368 6.36015 20.8612 5.18507C20.1909 4.65261 19.0932 3.52342 18.1799 3.909L18.1754 3.91359ZM21.707 6.69063C22.8002 7.85194 23.6595 9.25196 24.0824 10.8126C24.9056 13.8743 23.8844 17.1654 21.743 19.41C16.8528 24.528 9.69966 22.1182 5.30883 17.8172C11.8456 16.7477 17.1137 10.8447 18.4903 4.40933C18.4903 4.40933 18.4903 4.40474 18.4903 4.40015C18.7827 4.53785 21.3471 6.30965 21.707 6.69063Z" fill="#364A46" fill-opacity="0.8"></path> <path d="M19.2621 6.43353C19.1811 6.42435 19.1002 6.46566 19.0777 6.57583C17.998 12.5155 13.8636 16.5778 8.34353 18.3496C8.34353 18.3496 8.33452 18.345 8.33002 18.3404C8.27154 18.3037 8.21306 18.3496 8.19506 18.4001C8.07809 18.446 8.13208 18.6158 8.25355 18.5929C8.27604 18.5929 8.29854 18.5837 8.31654 18.5791C11.8661 21.7876 17.6516 21.4893 20.8007 17.8447C23.8104 14.3653 23.2211 9.07748 19.5321 6.39224C19.4286 6.3142 19.3251 6.35091 19.2621 6.42894V6.43353ZM19.829 18.2027C16.4684 21.3194 12.244 20.5988 8.63594 18.5148C14.12 17.4178 18.4029 12.4053 19.4151 6.90174C23.0816 9.69256 23.2076 15.0722 19.829 18.1981V18.2027Z" fill="#364A46" fill-opacity="0.8"></path> <path d="M19.8279 10.1609C19.756 10.1609 19.6795 10.193 19.648 10.2802C18.3703 14.0395 15.6035 17.2664 11.919 18.7169C11.856 18.7399 11.8785 18.8408 11.946 18.8225C11.9685 18.8179 11.991 18.8087 12.0135 18.8041C12.0135 18.8041 12.0135 18.8041 12.0135 18.8087C14.0065 20.1858 17.1916 19.0199 18.7662 17.4638C20.6917 15.5589 21.1776 12.6028 20.2418 10.092C20.1518 9.84874 19.7919 9.93135 19.8234 10.1609H19.8279ZM18.4783 17.1654C16.5663 19.0658 14.5103 18.8041 12.108 18.7766C15.842 17.8264 18.7257 14.0855 19.9404 10.5189C20.6602 12.8323 20.2373 15.4166 18.4828 17.1609L18.4783 17.1654Z" fill="#364A46" fill-opacity="0.8"></path> <path d="M1.96629 2.93629C-0.238124 5.29563 -0.575536 8.56843 0.868581 11.4373C0.891075 11.4832 0.958548 11.4694 0.972045 11.4235C0.972045 11.4143 0.976552 11.4005 0.981051 11.3914C0.999046 11.4051 1.01705 11.4189 1.04854 11.4189C6.82051 11.5658 11.6342 6.46153 11.7422 0.668751C11.7422 0.535637 11.6612 0.471369 11.5623 0.462188C11.5353 0.411697 11.4858 0.374989 11.4048 0.361218C8.05317 -0.125339 4.40914 0.31531 1.96179 2.93629H1.96629ZM1.04854 11.1619C1.04854 11.1619 1.04404 11.1664 1.03954 11.1664C1.04854 11.1251 1.06204 11.0884 1.07103 11.0471C1.08453 11.0012 1.02154 10.9874 1.00804 11.0287C0.985549 11.093 0.801101 10.1704 0.814598 10.2301C0.621149 9.38088 0.436694 8.49957 0.472684 7.61826C0.535667 6.01629 1.25099 4.46023 2.3397 3.31269C4.67458 0.847772 8.10267 0.416289 11.2788 0.866125C11.2833 0.866125 11.2878 0.866125 11.2923 0.866125C10.6445 6.7094 6.72152 10.4091 1.05302 11.1619H1.04854Z" fill="#364A46" fill-opacity="0.8"></path> <path d="M4.00432 3.46399C2.10582 4.96038 0.936136 7.38398 1.50299 9.82594C1.52998 9.9407 1.66493 9.95905 1.74591 9.90397C1.75941 9.90856 1.76839 9.92234 1.78638 9.91775C3.57241 9.82136 5.10202 8.76101 6.50115 7.69151C8.27368 6.32823 9.00247 4.36364 9.88874 2.35315C9.93823 2.23839 9.87526 2.13743 9.79428 2.09153C9.88426 2.00432 9.90673 1.83447 9.77627 1.73808C8.34115 0.696115 5.17399 2.55054 4.0133 3.46399H4.00432ZM9.56033 2.10529C9.56033 2.10529 9.58734 2.11446 9.60084 2.12364C9.59184 2.13741 9.57834 2.1466 9.56934 2.16496C8.80904 3.83578 8.20619 5.73153 6.80256 6.96628C5.43493 8.1689 3.59041 9.41743 1.79539 9.72038C1.57495 7.55841 2.30376 5.53414 3.93232 4.08824C4.97605 3.16103 8.1837 1.18726 9.56484 2.10529H9.56033Z" fill="#364A46" fill-opacity="0.8"></path> <path d="M2.83063 7.95311C2.81714 8.04032 2.88012 8.09081 2.94761 8.0954C2.9656 8.12295 2.9926 8.14131 3.03309 8.13213C5.18801 7.56754 7.30245 5.78198 7.9008 3.52362C8.04026 3.44559 7.99975 3.18394 7.81979 3.19771C5.38144 3.34919 3.22653 5.55246 2.83514 7.95311H2.83063ZM3.08707 7.92557C3.76639 5.64426 5.37245 4.25804 7.54537 3.63378C6.54664 5.64427 5.215 7.12229 3.08707 7.92557Z" fill="#364A46" fill-opacity="0.8"></path> <path d="M3.56312 19.3184C4.09397 27.5256 4.11197 35.6915 4.17945 43.9124C4.17945 44.0777 4.41791 44.0731 4.42691 43.9124C4.88129 35.7557 4.52585 27.4613 3.92301 19.3184C3.90502 19.0843 3.54962 19.0843 3.56312 19.3184Z" fill="#364A46" fill-opacity="0.8"></path> <path d="M21.6792 3.98717C21.5488 3.99635 21.5443 4.18915 21.6792 4.19833C29.5207 4.67112 37.533 4.12031 45.3879 4.03309C45.6624 4.03309 45.6624 3.59243 45.3879 3.59702C37.533 3.69342 29.5117 3.33537 21.6792 3.98717Z" fill="#364A46" fill-opacity="0.8"></path> <path d="M15.0697 589.791C14.9932 590.084 14.5208 590.071 14.5523 589.74C14.8987 585.962 13.792 582.084 11.1332 579.343C8.41145 576.543 4.98336 575.593 1.24035 575.501C1.14588 575.749 0.718481 575.722 0.72298 575.405C0.803959 566.206 0.880451 557.012 0.96143 547.814C1.04241 538.633 0.835466 529.393 1.24486 520.222C1.25835 519.928 1.68574 519.924 1.69474 520.222C1.94667 529.398 1.57774 538.633 1.50126 547.814C1.42029 556.916 1.34382 566.023 1.26284 575.125C9.3157 574.055 15.722 581.73 15.0967 589.579C19.0196 588.363 23.5499 588.735 27.5854 588.808C32.2731 588.895 36.9609 589.038 41.6486 589.139C51.0196 589.341 60.3951 589.359 69.7392 588.556C70.0496 588.528 70.0946 589.01 69.8111 589.093C69.6267 589.148 69.4467 589.203 69.2623 589.258C69.1363 589.295 69.0464 589.24 68.9969 589.157C60.0442 589.887 51.0601 589.882 42.085 589.694C37.5412 589.598 33.0019 589.465 28.4581 589.373C26.1412 589.327 23.8153 589.263 21.4985 589.345C19.3525 589.423 17.2066 589.795 15.0652 589.786L15.0697 589.791Z" fill="#364A46" fill-opacity="0.8"></path> <path d="M18.1754 586.086C18.072 586.04 17.991 585.962 17.991 585.838C17.991 585.811 17.991 585.788 17.991 585.76C17.991 585.751 17.982 585.742 17.9775 585.733C16.4434 578.949 11.5082 574.45 5.11989 572.513C4.92644 572.454 4.97143 572.21 5.12889 572.169C5.1064 572.137 5.0974 572.1 5.12439 572.063C9.26779 566.275 18.5758 565.178 23.0116 571.269C24.8966 573.858 25.4725 577.324 24.2668 580.339C23.556 582.116 22.3368 583.64 20.8612 584.815C20.1909 585.347 19.0932 586.477 18.1799 586.091L18.1754 586.086ZM21.707 583.309C22.8002 582.148 23.6595 580.748 24.0824 579.187C24.9056 576.126 23.8844 572.835 21.743 570.59C16.8528 565.472 9.69966 567.882 5.30883 572.183C11.8456 573.252 17.1137 579.155 18.4903 585.591C18.4903 585.591 18.4903 585.595 18.4903 585.6C18.7827 585.462 21.3471 583.69 21.707 583.309Z" fill="#364A46" fill-opacity="0.8"></path> <path d="M19.2621 583.566C19.1811 583.576 19.1002 583.534 19.0777 583.424C17.998 577.484 13.8636 573.422 8.34353 571.65C8.34353 571.65 8.33452 571.655 8.33002 571.66C8.27154 571.696 8.21306 571.65 8.19506 571.6C8.07809 571.554 8.13208 571.384 8.25355 571.407C8.27604 571.407 8.29854 571.416 8.31654 571.421C11.8661 568.212 17.6516 568.511 20.8007 572.155C23.8104 575.635 23.2211 580.922 19.5321 583.608C19.4286 583.686 19.3251 583.649 19.2621 583.571V583.566ZM19.829 571.797C16.4684 568.681 12.244 569.401 8.63594 571.485C14.12 572.582 18.4029 577.595 19.4151 583.098C23.0816 580.307 23.2076 574.928 19.829 571.802V571.797Z" fill="#364A46" fill-opacity="0.8"></path> <path d="M19.8279 579.839C19.756 579.839 19.6795 579.807 19.648 579.72C18.3703 575.961 15.6035 572.734 11.919 571.283C11.856 571.26 11.8785 571.159 11.946 571.178C11.9685 571.182 11.991 571.191 12.0135 571.196C12.0135 571.196 12.0135 571.196 12.0135 571.191C14.0065 569.814 17.1916 570.98 18.7662 572.536C20.6917 574.441 21.1776 577.397 20.2418 579.908C20.1518 580.151 19.7919 580.069 19.8234 579.839H19.8279ZM18.4783 572.835C16.5663 570.934 14.5103 571.196 12.108 571.223C15.842 572.174 18.7257 575.915 19.9404 579.481C20.6602 577.168 20.2373 574.583 18.4828 572.839L18.4783 572.835Z" fill="#364A46" fill-opacity="0.8"></path> <path d="M1.96629 587.064C-0.238124 584.704 -0.575536 581.432 0.868581 578.563C0.891075 578.517 0.958548 578.531 0.972045 578.577C0.972045 578.586 0.976552 578.599 0.981051 578.609C0.999046 578.595 1.01705 578.581 1.04854 578.581C6.82051 578.434 11.6342 583.538 11.7422 589.331C11.7422 589.464 11.6612 589.529 11.5623 589.538C11.5353 589.588 11.4858 589.625 11.4048 589.639C8.05317 590.125 4.40914 589.685 1.96179 587.064H1.96629ZM1.04854 578.838C1.04854 578.838 1.04404 578.834 1.03954 578.834C1.04854 578.875 1.06204 578.912 1.07103 578.953C1.08453 578.999 1.02154 579.013 1.00804 578.971C0.985549 578.907 0.801101 579.83 0.814598 579.77C0.621149 580.619 0.436694 581.5 0.472684 582.382C0.535667 583.984 1.25099 585.54 2.3397 586.687C4.67458 589.152 8.10267 589.584 11.2788 589.134C11.2833 589.134 11.2878 589.134 11.2923 589.134C10.6445 583.291 6.72152 579.591 1.05302 578.838H1.04854Z" fill="#364A46" fill-opacity="0.8"></path> <path d="M4.00432 586.536C2.10582 585.04 0.936136 582.616 1.50299 580.174C1.52998 580.059 1.66493 580.041 1.74591 580.096C1.75941 580.091 1.76839 580.078 1.78638 580.082C3.57241 580.179 5.10202 581.239 6.50115 582.308C8.27368 583.672 9.00247 585.636 9.88874 587.647C9.93823 587.762 9.87526 587.863 9.79428 587.908C9.88426 587.996 9.90673 588.166 9.77627 588.262C8.34115 589.304 5.17399 587.449 4.0133 586.536H4.00432ZM9.56033 587.895C9.56033 587.895 9.58734 587.886 9.60084 587.876C9.59184 587.863 9.57834 587.853 9.56934 587.835C8.80904 586.164 8.20619 584.268 6.80256 583.034C5.43493 581.831 3.59041 580.583 1.79539 580.28C1.57495 582.442 2.30376 584.466 3.93232 585.912C4.97605 586.839 8.1837 588.813 9.56484 587.895H9.56033Z" fill="#364A46" fill-opacity="0.8"></path> <path d="M2.83063 582.047C2.81714 581.96 2.88012 581.909 2.94761 581.905C2.9656 581.877 2.9926 581.859 3.03309 581.868C5.18801 582.432 7.30245 584.218 7.9008 586.476C8.04026 586.554 7.99975 586.816 7.81979 586.802C5.38144 586.651 3.22653 584.448 2.83514 582.047H2.83063ZM3.08707 582.074C3.76639 584.356 5.37245 585.742 7.54537 586.366C6.54664 584.356 5.215 582.878 3.08707 582.074Z" fill="#364A46" fill-opacity="0.8"></path> <path d="M3.56312 570.682C4.09397 562.474 4.11197 554.308 4.17945 546.087C4.17945 545.922 4.41791 545.927 4.42691 546.087C4.88129 554.244 4.52585 562.539 3.92301 570.682C3.90502 570.916 3.54962 570.916 3.56312 570.682Z" fill="#364A46" fill-opacity="0.8"></path> <path d="M21.6792 586.013C21.5488 586.004 21.5443 585.811 21.6792 585.802C29.5207 585.329 37.533 585.88 45.3879 585.967C45.6624 585.967 45.6624 586.408 45.3879 586.403C37.533 586.307 29.5117 586.665 21.6792 586.013Z" fill="#364A46" fill-opacity="0.8"></path> <path d="M1174.93 0.209468C1175.01 -0.0843027 1175.48 -0.070539 1175.45 0.259953C1175.1 4.03765 1176.21 7.91635 1178.87 10.6567C1181.59 13.4567 1185.02 14.4068 1188.76 14.4986C1188.85 14.2508 1189.28 14.2783 1189.28 14.595C1189.2 23.7937 1189.12 32.9878 1189.04 42.1865C1188.96 51.3668 1189.16 60.6068 1188.76 69.7779C1188.74 70.0717 1188.31 70.0763 1188.31 69.7779C1188.05 60.6022 1188.42 51.3668 1188.5 42.1865C1188.58 33.0842 1188.66 23.9773 1188.74 14.875C1180.68 15.9445 1174.28 8.2698 1174.9 0.420625C1170.98 1.63702 1166.45 1.26521 1162.41 1.19177C1157.73 1.10456 1153.04 0.962246 1148.35 0.861263C1138.98 0.659295 1129.6 0.640944 1120.26 1.44422C1119.95 1.47176 1119.91 0.989804 1120.19 0.907181C1120.37 0.852099 1120.55 0.797024 1120.74 0.741942C1120.86 0.705221 1120.95 0.760289 1121 0.842912C1129.96 0.113076 1138.94 0.117674 1147.91 0.305871C1152.46 0.402264 1157 0.535385 1161.54 0.627188C1163.86 0.67309 1166.18 0.737351 1168.5 0.654728C1170.65 0.576695 1172.79 0.204882 1174.93 0.214062L1174.93 0.209468Z" fill="#364A46" fill-opacity="0.8"></path> <path d="M1171.82 3.91359C1171.93 3.95949 1172.01 4.03751 1172.01 4.16145C1172.01 4.18899 1172.01 4.21196 1172.01 4.2395C1172.01 4.24868 1172.02 4.25786 1172.02 4.26704C1173.56 11.0513 1178.49 15.5497 1184.88 17.4867C1185.07 17.5464 1185.03 17.7897 1184.87 17.831C1184.89 17.8631 1184.9 17.8998 1184.88 17.9365C1180.73 23.7247 1171.42 24.8218 1166.99 18.7306C1165.1 16.1418 1164.53 12.6762 1165.73 9.66048C1166.44 7.88409 1167.66 6.36015 1169.14 5.18507C1169.81 4.65261 1170.91 3.52342 1171.82 3.909L1171.82 3.91359ZM1168.29 6.69063C1167.2 7.85194 1166.34 9.25196 1165.92 10.8126C1165.09 13.8743 1166.12 17.1654 1168.26 19.41C1173.15 24.528 1180.3 22.1182 1184.69 17.8172C1178.15 16.7477 1172.89 10.8447 1171.51 4.40933C1171.51 4.40933 1171.51 4.40474 1171.51 4.40015C1171.22 4.53785 1168.65 6.30965 1168.29 6.69063Z" fill="#364A46" fill-opacity="0.8"></path> <path d="M1170.74 6.43353C1170.82 6.42435 1170.9 6.46566 1170.92 6.57583C1172 12.5155 1176.14 16.5778 1181.66 18.3496C1181.66 18.3496 1181.67 18.345 1181.67 18.3404C1181.73 18.3037 1181.79 18.3496 1181.8 18.4001C1181.92 18.446 1181.87 18.6158 1181.75 18.5929C1181.72 18.5929 1181.7 18.5837 1181.68 18.5791C1178.13 21.7876 1172.35 21.4893 1169.2 17.8447C1166.19 14.3653 1166.78 9.07748 1170.47 6.39224C1170.57 6.3142 1170.67 6.35091 1170.74 6.42894V6.43353ZM1170.17 18.2027C1173.53 21.3194 1177.76 20.5988 1181.36 18.5148C1175.88 17.4178 1171.6 12.4053 1170.58 6.90174C1166.92 9.69256 1166.79 15.0722 1170.17 18.1981V18.2027Z" fill="#364A46" fill-opacity="0.8"></path> <path d="M1170.17 10.1609C1170.24 10.1609 1170.32 10.193 1170.35 10.2802C1171.63 14.0395 1174.4 17.2664 1178.08 18.7169C1178.14 18.7399 1178.12 18.8408 1178.05 18.8225C1178.03 18.8179 1178.01 18.8087 1177.99 18.8041C1177.99 18.8041 1177.99 18.8041 1177.99 18.8087C1175.99 20.1858 1172.81 19.0199 1171.23 17.4638C1169.31 15.5589 1168.82 12.6028 1169.76 10.092C1169.85 9.84874 1170.21 9.93135 1170.18 10.1609H1170.17ZM1171.52 17.1654C1173.43 19.0658 1175.49 18.8041 1177.89 18.7766C1174.16 17.8264 1171.27 14.0855 1170.06 10.5189C1169.34 12.8323 1169.76 15.4166 1171.52 17.1609L1171.52 17.1654Z" fill="#364A46" fill-opacity="0.8"></path> <path d="M1188.03 2.93629C1190.24 5.29563 1190.58 8.56843 1189.13 11.4373C1189.11 11.4832 1189.04 11.4694 1189.03 11.4235C1189.03 11.4143 1189.02 11.4005 1189.02 11.3914C1189 11.4051 1188.98 11.4189 1188.95 11.4189C1183.18 11.5658 1178.37 6.46153 1178.26 0.668751C1178.26 0.535637 1178.34 0.471369 1178.44 0.462188C1178.46 0.411697 1178.51 0.374989 1178.6 0.361218C1181.95 -0.125339 1185.59 0.31531 1188.04 2.93629H1188.03ZM1188.95 11.1619C1188.95 11.1619 1188.96 11.1664 1188.96 11.1664C1188.95 11.1251 1188.94 11.0884 1188.93 11.0471C1188.92 11.0012 1188.98 10.9874 1188.99 11.0287C1189.01 11.093 1189.2 10.1704 1189.19 10.2301C1189.38 9.38088 1189.56 8.49957 1189.53 7.61826C1189.46 6.01629 1188.75 4.46023 1187.66 3.31269C1185.33 0.847772 1181.9 0.416289 1178.72 0.866125C1178.72 0.866125 1178.71 0.866125 1178.71 0.866125C1179.36 6.7094 1183.28 10.4091 1188.95 11.1619H1188.95Z" fill="#364A46" fill-opacity="0.8"></path> <path d="M1186 3.46399C1187.89 4.96038 1189.06 7.38398 1188.5 9.82594C1188.47 9.9407 1188.34 9.95905 1188.25 9.90397C1188.24 9.90856 1188.23 9.92234 1188.21 9.91775C1186.43 9.82136 1184.9 8.76101 1183.5 7.69151C1181.73 6.32823 1181 4.36364 1180.11 2.35315C1180.06 2.23839 1180.12 2.13743 1180.21 2.09153C1180.12 2.00432 1180.09 1.83447 1180.22 1.73808C1181.66 0.696115 1184.83 2.55054 1185.99 3.46399H1186ZM1180.44 2.10529C1180.44 2.10529 1180.41 2.11446 1180.4 2.12364C1180.41 2.13741 1180.42 2.1466 1180.43 2.16496C1181.19 3.83578 1181.79 5.73153 1183.2 6.96628C1184.57 8.1689 1186.41 9.41743 1188.2 9.72038C1188.43 7.55841 1187.7 5.53414 1186.07 4.08824C1185.02 3.16103 1181.82 1.18726 1180.44 2.10529H1180.44Z" fill="#364A46" fill-opacity="0.8"></path> <path d="M1187.17 7.95311C1187.18 8.04032 1187.12 8.09081 1187.05 8.0954C1187.03 8.12295 1187.01 8.14131 1186.97 8.13213C1184.81 7.56754 1182.7 5.78198 1182.1 3.52362C1181.96 3.44559 1182 3.18394 1182.18 3.19771C1184.62 3.34919 1186.77 5.55246 1187.16 7.95311H1187.17ZM1186.91 7.92557C1186.23 5.64426 1184.63 4.25804 1182.45 3.63378C1183.45 5.64427 1184.78 7.12229 1186.91 7.92557Z" fill="#364A46" fill-opacity="0.8"></path> <path d="M1186.44 19.3184C1185.91 27.5256 1185.89 35.6915 1185.82 43.9124C1185.82 44.0777 1185.58 44.0731 1185.57 43.9124C1185.12 35.7557 1185.47 27.4613 1186.08 19.3184C1186.09 19.0843 1186.45 19.0843 1186.44 19.3184Z" fill="#364A46" fill-opacity="0.8"></path> <path d="M1168.32 3.98717C1168.45 3.99635 1168.46 4.18915 1168.32 4.19833C1160.48 4.67112 1152.47 4.12031 1144.61 4.03309C1144.34 4.03309 1144.34 3.59243 1144.61 3.59702C1152.47 3.69342 1160.49 3.33537 1168.32 3.98717Z" fill="#364A46" fill-opacity="0.8"></path> <path d="M1174.93 589.791C1175.01 590.084 1175.48 590.071 1175.45 589.74C1175.1 585.962 1176.21 582.084 1178.87 579.343C1181.59 576.543 1185.02 575.593 1188.76 575.501C1188.85 575.749 1189.28 575.722 1189.28 575.405C1189.2 566.206 1189.12 557.012 1189.04 547.814C1188.96 538.633 1189.16 529.393 1188.76 520.222C1188.74 519.928 1188.31 519.924 1188.31 520.222C1188.05 529.398 1188.42 538.633 1188.5 547.814C1188.58 556.916 1188.66 566.023 1188.74 575.125C1180.68 574.055 1174.28 581.73 1174.9 589.579C1170.98 588.363 1166.45 588.735 1162.41 588.808C1157.73 588.895 1153.04 589.038 1148.35 589.139C1138.98 589.341 1129.6 589.359 1120.26 588.556C1119.95 588.528 1119.91 589.01 1120.19 589.093C1120.37 589.148 1120.55 589.203 1120.74 589.258C1120.86 589.295 1120.95 589.24 1121 589.157C1129.96 589.887 1138.94 589.882 1147.91 589.694C1152.46 589.598 1157 589.465 1161.54 589.373C1163.86 589.327 1166.18 589.263 1168.5 589.345C1170.65 589.423 1172.79 589.795 1174.93 589.786L1174.93 589.791Z" fill="#364A46" fill-opacity="0.8"></path> <path d="M1171.82 586.086C1171.93 586.041 1172.01 585.962 1172.01 585.839C1172.01 585.811 1172.01 585.788 1172.01 585.76C1172.01 585.751 1172.02 585.742 1172.02 585.733C1173.56 578.949 1178.49 574.45 1184.88 572.513C1185.07 572.454 1185.03 572.21 1184.87 572.169C1184.89 572.137 1184.9 572.1 1184.88 572.063C1180.73 566.275 1171.42 565.178 1166.99 571.269C1165.1 573.858 1164.53 577.324 1165.73 580.34C1166.44 582.116 1167.66 583.64 1169.14 584.815C1169.81 585.347 1170.91 586.477 1171.82 586.091L1171.82 586.086ZM1168.29 583.309C1167.2 582.148 1166.34 580.748 1165.92 579.187C1165.09 576.126 1166.12 572.835 1168.26 570.59C1173.15 565.472 1180.3 567.882 1184.69 572.183C1178.15 573.252 1172.89 579.155 1171.51 585.591C1171.51 585.591 1171.51 585.595 1171.51 585.6C1171.22 585.462 1168.65 583.69 1168.29 583.309Z" fill="#364A46" fill-opacity="0.8"></path> <path d="M1170.74 583.566C1170.82 583.576 1170.9 583.534 1170.92 583.424C1172 577.485 1176.14 573.422 1181.66 571.65C1181.66 571.65 1181.67 571.655 1181.67 571.66C1181.73 571.696 1181.79 571.65 1181.8 571.6C1181.92 571.554 1181.87 571.384 1181.75 571.407C1181.72 571.407 1181.7 571.416 1181.68 571.421C1178.13 568.212 1172.35 568.511 1169.2 572.155C1166.19 575.635 1166.78 580.923 1170.47 583.608C1170.57 583.686 1170.67 583.649 1170.74 583.571V583.566ZM1170.17 571.797C1173.53 568.681 1177.76 569.401 1181.36 571.485C1175.88 572.582 1171.6 577.595 1170.58 583.098C1166.92 580.307 1166.79 574.928 1170.17 571.802V571.797Z" fill="#364A46" fill-opacity="0.8"></path> <path d="M1170.17 579.839C1170.24 579.839 1170.32 579.807 1170.35 579.72C1171.63 575.961 1174.4 572.734 1178.08 571.283C1178.14 571.26 1178.12 571.159 1178.05 571.178C1178.03 571.182 1178.01 571.191 1177.99 571.196C1177.99 571.196 1177.99 571.196 1177.99 571.191C1175.99 569.814 1172.81 570.98 1171.23 572.536C1169.31 574.441 1168.82 577.397 1169.76 579.908C1169.85 580.151 1170.21 580.069 1170.18 579.839H1170.17ZM1171.52 572.835C1173.43 570.934 1175.49 571.196 1177.89 571.224C1174.16 572.174 1171.27 575.915 1170.06 579.481C1169.34 577.168 1169.76 574.584 1171.52 572.839L1171.52 572.835Z" fill="#364A46" fill-opacity="0.8"></path> <path d="M1188.03 587.064C1190.24 584.704 1190.58 581.432 1189.13 578.563C1189.11 578.517 1189.04 578.531 1189.03 578.577C1189.03 578.586 1189.02 578.599 1189.02 578.609C1189 578.595 1188.98 578.581 1188.95 578.581C1183.18 578.434 1178.37 583.538 1178.26 589.331C1178.26 589.464 1178.34 589.529 1178.44 589.538C1178.46 589.588 1178.51 589.625 1178.6 589.639C1181.95 590.125 1185.59 589.685 1188.04 587.064H1188.03ZM1188.95 578.838C1188.95 578.838 1188.96 578.834 1188.96 578.834C1188.95 578.875 1188.94 578.912 1188.93 578.953C1188.92 578.999 1188.98 579.013 1188.99 578.971C1189.01 578.907 1189.2 579.83 1189.19 579.77C1189.38 580.619 1189.56 581.5 1189.53 582.382C1189.46 583.984 1188.75 585.54 1187.66 586.687C1185.33 589.152 1181.9 589.584 1178.72 589.134C1178.72 589.134 1178.71 589.134 1178.71 589.134C1179.36 583.291 1183.28 579.591 1188.95 578.838H1188.95Z" fill="#364A46" fill-opacity="0.8"></path> <path d="M1186 586.536C1187.89 585.04 1189.06 582.616 1188.5 580.174C1188.47 580.059 1188.34 580.041 1188.25 580.096C1188.24 580.091 1188.23 580.078 1188.21 580.082C1186.43 580.179 1184.9 581.239 1183.5 582.308C1181.73 583.672 1181 585.636 1180.11 587.647C1180.06 587.762 1180.12 587.863 1180.21 587.908C1180.12 587.996 1180.09 588.166 1180.22 588.262C1181.66 589.304 1184.83 587.449 1185.99 586.536H1186ZM1180.44 587.895C1180.44 587.895 1180.41 587.886 1180.4 587.876C1180.41 587.863 1180.42 587.853 1180.43 587.835C1181.19 586.164 1181.79 584.268 1183.2 583.034C1184.57 581.831 1186.41 580.583 1188.2 580.28C1188.43 582.442 1187.7 584.466 1186.07 585.912C1185.02 586.839 1181.82 588.813 1180.44 587.895H1180.44Z" fill="#364A46" fill-opacity="0.8"></path> <path d="M1187.17 582.047C1187.18 581.96 1187.12 581.909 1187.05 581.905C1187.03 581.877 1187.01 581.859 1186.97 581.868C1184.81 582.432 1182.7 584.218 1182.1 586.476C1181.96 586.554 1182 586.816 1182.18 586.802C1184.62 586.651 1186.77 584.448 1187.16 582.047H1187.17ZM1186.91 582.074C1186.23 584.356 1184.63 585.742 1182.45 586.366C1183.45 584.356 1184.78 582.878 1186.91 582.074Z" fill="#364A46" fill-opacity="0.8"></path> <path d="M1186.44 570.682C1185.91 562.474 1185.89 554.309 1185.82 546.088C1185.82 545.922 1185.58 545.927 1185.57 546.088C1185.12 554.244 1185.47 562.539 1186.08 570.682C1186.09 570.916 1186.45 570.916 1186.44 570.682Z" fill="#364A46" fill-opacity="0.8"></path> <path d="M1168.32 586.013C1168.45 586.004 1168.46 585.811 1168.32 585.802C1160.48 585.329 1152.47 585.88 1144.61 585.967C1144.34 585.967 1144.34 586.408 1144.61 586.403C1152.47 586.307 1160.49 586.665 1168.32 586.013Z" fill="#364A46" fill-opacity="0.8"></path> <path d="M69 1H1120.5" stroke="#364A46" stroke-opacity="0.8" stroke-width="0.5"></path> <path d="M1188.5 520L1188.5 69" stroke="#364A46" stroke-opacity="0.8" stroke-width="0.5"></path> <path d="M1.49609 520L1.49611 69" stroke="#364A46" stroke-opacity="0.8" stroke-width="0.5"></path> <path d="M69 589H1120.5" stroke="#364A46" stroke-opacity="0.8" stroke-width="0.5"></path> </svg> 